<svg xmlns="http://www.w3.org/2000/svg" width="95" height="72.805" viewBox="0 0 95 72.805">
  <g id="Group_12" data-name="Group 12" transform="translate(-912.5 -87.215)">
    <path id="Path_69" data-name="Path 69" d="M614.616,47.2H565.194V29.419h62.958Z" transform="translate(347.306 57.796)" fill="#e4e4e4"/>
    <path id="Path_70" data-name="Path 70" d="M611.355,85.424l-46.162.293V67.184H624.61Z" transform="translate(347.307 47.167)" fill="#e4e4e4"/>
    <g id="Group_1" data-name="Group 1" transform="translate(912.5 87.215)">
      <path id="Path_71" data-name="Path 71" d="M643.675,111.062a11.419,11.419,0,0,0,1.226-.069H616.547a11.407,11.407,0,0,0,1.226.069Z" transform="translate(-582.195 -56.425)" fill="#e4e4e4"/>
      <path id="Path_72" data-name="Path 72" d="M637.989,29.419V51.427H638v21.3a11.35,11.35,0,0,1-11.327,11.328h-25.9a11.41,11.41,0,0,1-1.226-.069H578.584v.069h-13.39v18.169h76.437a18.559,18.559,0,0,0,18.555-18.238h.008V29.419Z" transform="translate(-565.194 -29.419)" fill="#e4e4e4"/>
    </g>
  </g>
</svg>
