<svg xmlns="http://www.w3.org/2000/svg" width="271.639" height="265.623" viewBox="0 0 271.639 265.623">
  <g id="Group_20" data-name="Group 20" transform="translate(-839.287 -87.287)">
    <g id="Path_76" data-name="Path 76" transform="translate(839.287 87.287)" fill="none" stroke-linecap="square">
      <path d="M121.213,0A121.213,121.213,0,1,1,0,121.213,121.213,121.213,0,0,1,121.213,0Z" stroke="none"/>
      <path d="M 121.2128219604492 18.99996948242188 C 64.85247802734375 18.99996948242188 18.99996948242188 64.85247802734375 18.99996948242188 121.2128219604492 C 18.99996948242188 177.5731811523438 64.85247802734375 223.4256286621094 121.2128219604492 223.4256286621094 C 177.5731811523438 223.4256286621094 223.4256286621094 177.5731811523438 223.4256286621094 121.2128219604492 C 223.4256286621094 64.85247802734375 177.5731811523438 18.99996948242188 121.2128219604492 18.99996948242188 M 121.2128219604492 -3.0517578125e-05 C 188.1567687988281 -3.0517578125e-05 242.4256286621094 54.26882934570312 242.4256286621094 121.2128219604492 C 242.4256286621094 188.1567687988281 188.1567687988281 242.4256286621094 121.2128219604492 242.4256286621094 C 54.26882934570312 242.4256286621094 -3.0517578125e-05 188.1567687988281 -3.0517578125e-05 121.2128219604492 C -3.0517578125e-05 54.26882934570312 54.26882934570312 -3.0517578125e-05 121.2128219604492 -3.0517578125e-05 Z" stroke="none" fill="#e4e4e4"/>
    </g>
    <g id="Group_12" data-name="Group 12" transform="translate(-6.804 79.285)">
      <path id="Path_69" data-name="Path 69" d="M622.215,49.94H565.194V29.419h72.639Z" transform="translate(347.306 57.796)" fill="#e4e4e4"/>
      <path id="Path_70" data-name="Path 70" d="M618.453,88.229l-53.259.338V67.184h68.553Z" transform="translate(347.307 51.34)" fill="#e4e4e4"/>
      <g id="Group_1" data-name="Group 1" transform="translate(912.5 87.215)">
        <path id="Path_71" data-name="Path 71" d="M647.846,111.072a13.172,13.172,0,0,0,1.415-.079H616.547a13.161,13.161,0,0,0,1.415.079Z" transform="translate(-576.913 -48.035)" fill="#e4e4e4"/>
        <path id="Path_72" data-name="Path 72" d="M649.182,29.419V54.811h.013V79.387a13.095,13.095,0,0,1-13.069,13.069H606.242a13.164,13.164,0,0,1-1.415-.079H580.643v.079H565.194v20.963h88.19a21.413,21.413,0,0,0,21.408-21.042h.009V29.419Z" transform="translate(-565.194 -29.419)" fill="#e4e4e4"/>
      </g>
    </g>
    <path id="Icon_ionic-md-star" data-name="Icon ionic-md-star" d="M36.393,54.311,56.536,66.464,51.207,43.54,68.988,28.125,45.547,26.112,36.393,4.5,27.236,26.112,21.578,43.54l-5.33,22.924Z" transform="translate(1035.832 215.018)" fill="#171717" stroke="#e4e4e4" stroke-width="5"/>
    <path id="Icon_ionic-md-star-2" data-name="Icon ionic-md-star" d="M36.393,54.311,56.536,66.464,51.207,43.54,68.988,28.125,45.547,26.112,36.393,4.5,27.236,26.112,21.578,43.54l-5.33,22.924Z" transform="translate(997.011 263.249)" fill="#171717" stroke="#e4e4e4" stroke-width="5"/>
    <path id="Icon_ionic-md-star-3" data-name="Icon ionic-md-star" d="M36.393,54.311,56.536,66.464,51.207,43.54,68.988,28.125,45.547,26.112,36.393,4.5,27.236,26.112,21.578,43.54l-5.33,22.924Z" transform="translate(938.512 281.249)" fill="#171717" stroke="#e4e4e4" stroke-width="5"/>
    <path id="Icon_ionic-md-star-4" data-name="Icon ionic-md-star" d="M36.393,54.311,56.536,66.464,51.207,43.54,68.988,28.125,45.547,26.112,36.393,4.5,27.236,26.112,3.8,28.125,21.578,43.54l-5.33,22.924Z" transform="translate(1035.832 215.018)" fill="#171717"/>
    <path id="Icon_ionic-md-star-5" data-name="Icon ionic-md-star" d="M36.393,54.311,56.536,66.464,51.207,43.54,68.988,28.125,45.547,26.112,36.393,4.5,27.236,26.112,3.8,28.125,21.578,43.54l-5.33,22.924Z" transform="translate(997.011 263.249)" fill="#171717"/>
    <path id="Icon_ionic-md-star-6" data-name="Icon ionic-md-star" d="M36.393,54.311,56.536,66.464,51.207,43.54,68.988,28.125,45.547,26.112,36.393,4.5,27.236,26.112,3.8,28.125,21.578,43.54l-5.33,22.924Z" transform="translate(938.512 281.249)" fill="#171717"/>
  </g>
</svg>
